<svg width="70" height="70" viewBox="0 0 70 70" fill="none" xmlns="http://www.w3.org/2000/svg">
<path d="M10.4607 62.202L5 1H65L59.5346 62.1919L34.9632 69L10.4607 62.202Z" fill="#1572B6"/>
<path d="M35 64L54.429 58.4795L59 6H35V64Z" fill="#33A9DC"/>
<path d="M35 27.7252H45.0262L45.7194 20.2754H35V13H54L53.8184 14.9518L51.9564 35H35V27.7252Z" fill="white"/>
<path d="M34.9993 47.2072L34.9652 47.2166L26.3326 44.9665L25.78 39H18L19.0864 50.7463L34.9638 55L35 54.9899L34.9993 47.2072Z" fill="#EBEBEB"/>
<path d="M44.3824 35L43.4676 44.9916L35 47.2377V55L50.5644 50.7611L50.6789 49.5005L52 35H44.3824Z" fill="white"/>
<path d="M35 13V20.2743H16.6796L16.5271 18.6395L16.1818 14.9517L16 13H35ZM34.9734 27.725V35H26.6335L26.4816 33.3651L26.1357 29.6767L25.9539 27.725H34.9734Z" fill="#EBEBEB"/>
</svg>
