<svg width="70" height="70" viewBox="0 0 70 70" fill="none" xmlns="http://www.w3.org/2000/svg">
<path d="M10.4604 62.2027L5 1H65L59.5342 62.1932L34.9633 69L10.4604 62.2027Z" fill="#E44D26"/>
<path d="M35 64L55.2381 58.4794L60 6H35V64Z" fill="#F16529"/>
<path d="M35 29.3699H24.973L24.2813 21.5933H35V14H16L16.1808 16.0376L18.0436 36.9625H35V29.3699ZM35 49.0896L34.9664 49.0985L26.5283 46.8145L25.9886 40.7592H18.3819L19.4435 52.6817L34.9651 57L35 56.9897V49.0896Z" fill="#EBEBEB"/>
<path d="M35 29.3714V36.9647H44.3396L43.4594 46.8135L35 49.0998V57L50.5491 52.6854L50.6629 51.4019L52.4452 31.4099L52.6303 29.3714H50.5861H35ZM35 14V21.594H53.3206L53.4721 19.887L53.8183 16.0378L54 14H35Z" fill="white"/>
</svg>
