<svg width="45" height="50" viewBox="0 0 45 50" fill="none" xmlns="http://www.w3.org/2000/svg">
<g clip-path="url(#clip0_6_229)">
<path d="M41.4541 3.125H3.17881C1.42498 3.125 0 4.54102 0 6.2793V43.7207C0 45.459 1.42498 46.875 3.17881 46.875H41.4541C43.2079 46.875 44.6429 45.459 44.6429 43.7207V6.2793C44.6429 4.54102 43.2079 3.125 41.4541 3.125ZM13.4925 40.625H6.8758V19.7461H13.5025V40.625H13.4925ZM10.1842 16.8945C8.06162 16.8945 6.34766 15.2051 6.34766 13.1348C6.34766 11.0645 8.06162 9.375 10.1842 9.375C12.2967 9.375 14.0206 11.0645 14.0206 13.1348C14.0206 15.2148 12.3067 16.8945 10.1842 16.8945ZM38.2952 40.625H31.6785V30.4688C31.6785 28.0469 31.6287 24.9316 28.2406 24.9316C24.7927 24.9316 24.2646 27.5684 24.2646 30.293V40.625H17.6479V19.7461H23.9955V22.5977H24.0852C24.9721 20.957 27.1345 19.2285 30.3532 19.2285C37.0496 19.2285 38.2952 23.5547 38.2952 29.1797V40.625Z" fill="white"/>
</g>
<defs>
<clipPath id="clip0_6_229">
<rect width="44.6429" height="50" fill="white"/>
</clipPath>
</defs>
</svg>
