<svg width="133" height="42" viewBox="0 0 133 42" fill="none" xmlns="http://www.w3.org/2000/svg">
<g filter="url(#filter0_d_2_121)">
<path d="M25.79 2.215C26.2667 3.42833 26.0717 4.51167 25.205 5.465L13.96 16.58C13.57 17.0567 13.57 17.4467 13.96 17.75L25.075 28.93C26.0283 29.8833 26.2667 30.9667 25.79 32.18C25.5733 32.7 25.205 33.1333 24.685 33.48C24.165 33.8267 23.6017 34 22.995 34H20.525C19.6583 34 18.965 33.6967 18.445 33.09L5.445 20.155C4.88167 19.5917 4.6 18.8983 4.6 18.075V16.255C4.6 15.5183 4.88167 14.825 5.445 14.175L18.445 1.24C18.965 0.633333 19.6583 0.33 20.525 0.33H23.06C23.6667 0.33 24.2083 0.503332 24.685 0.849997C25.205 1.19666 25.5733 1.65166 25.79 2.215ZM51.9247 14.944C51.9247 16.096 51.6367 17.152 51.0607 18.112C50.5167 19.072 49.7647 19.84 48.8047 20.416C47.8447 20.992 46.7727 21.28 45.5887 21.28H36.7567C36.3727 21.28 36.1807 21.488 36.1807 21.904V31.792C36.1807 32.4 35.9567 32.928 35.5087 33.376C35.0927 33.792 34.5807 34 33.9727 34H32.6767C32.0687 34 31.5407 33.792 31.0927 33.376C30.6767 32.928 30.4687 32.4 30.4687 31.792V3.76C30.4687 3.12 30.6767 2.592 31.0927 2.176C31.5407 1.76 32.0687 1.552 32.6767 1.552H45.5887C46.7727 1.552 47.8447 1.84 48.8047 2.416C49.7647 2.992 50.5167 3.76 51.0607 4.72C51.6367 5.68 51.9247 6.752 51.9247 7.936V14.944ZM46.2607 14.944V7.936C46.2607 7.488 46.0367 7.264 45.5887 7.264H36.7567C36.3727 7.264 36.1807 7.472 36.1807 7.888V14.944C36.1807 15.36 36.3727 15.568 36.7567 15.568H45.5887C46.0367 15.568 46.2607 15.36 46.2607 14.944ZM72.0543 31.792C72.0543 32.4 71.8463 32.928 71.4303 33.376C71.0463 33.792 70.5503 34 69.9423 34H68.5983C67.9903 34 67.4623 33.792 67.0143 33.376C66.5983 32.928 66.3903 32.4 66.3903 31.792V9.952C66.3903 9.824 66.3263 9.744 66.1983 9.712C66.1023 9.648 66.0223 9.648 65.9583 9.712L65.2383 10.432C64.8543 10.88 64.3423 11.104 63.7023 11.104C63.3823 11.104 63.0943 11.04 62.8383 10.912C62.4223 10.752 62.1023 10.48 61.8783 10.096C61.6543 9.712 61.5423 9.312 61.5423 8.896V7.024C61.5423 6.416 61.7503 5.888 62.1663 5.44L65.4303 2.224C65.6543 2.032 65.8943 1.872 66.1503 1.744C66.4063 1.616 66.6943 1.552 67.0143 1.552H69.9423C70.5503 1.552 71.0463 1.76 71.4303 2.176C71.8463 2.592 72.0543 3.12 72.0543 3.76V31.792ZM102.249 4.72L87.2253 32.848C86.8093 33.616 86.1693 34 85.3053 34H83.8173C82.9853 34 82.3613 33.648 81.9453 32.944C81.5613 32.24 81.5453 31.504 81.8973 30.736L96.9213 2.704C97.3373 1.936 97.9773 1.552 98.8413 1.552H100.329C101.161 1.552 101.785 1.904 102.201 2.608C102.617 3.28 102.633 3.984 102.249 4.72ZM128.444 18.075C128.444 18.9417 128.162 19.635 127.599 20.155L114.664 33.09C113.97 33.6967 113.255 34 112.519 34H109.984C109.42 34 108.879 33.8267 108.359 33.48C107.882 33.1333 107.514 32.7 107.254 32.18C106.777 31.01 106.994 29.9267 107.904 28.93L119.019 17.75C119.495 17.4467 119.495 17.0567 119.019 16.58L107.904 5.465C106.95 4.59833 106.734 3.515 107.254 2.215C107.47 1.65166 107.839 1.19666 108.359 0.849997C108.879 0.503332 109.42 0.33 109.984 0.33H112.519C113.255 0.33 113.97 0.633333 114.664 1.24L127.599 14.175C128.162 14.7383 128.444 15.4317 128.444 16.255V18.075Z" fill="white"/>
</g>
<defs>
<filter id="filter0_d_2_121" x="0.599976" y="0.330002" width="131.844" height="41.67" filterUnits="userSpaceOnUse" color-interpolation-filters="sRGB">
<feFlood flood-opacity="0" result="BackgroundImageFix"/>
<feColorMatrix in="SourceAlpha" type="matrix" values="0 0 0 0 0 0 0 0 0 0 0 0 0 0 0 0 0 0 127 0" result="hardAlpha"/>
<feOffset dy="4"/>
<feGaussianBlur stdDeviation="2"/>
<feComposite in2="hardAlpha" operator="out"/>
<feColorMatrix type="matrix" values="0 0 0 0 0 0 0 0 0 0 0 0 0 0 0 0 0 0 0.25 0"/>
<feBlend mode="normal" in2="BackgroundImageFix" result="effect1_dropShadow_2_121"/>
<feBlend mode="normal" in="SourceGraphic" in2="effect1_dropShadow_2_121" result="shape"/>
</filter>
</defs>
</svg>
