<svg width="70" height="70" viewBox="0 0 70 70" fill="none" xmlns="http://www.w3.org/2000/svg">
<g clip-path="url(#clip0_18_62)">
<path d="M62.5149 30.217C62.4867 30.217 62.4591 30.2254 62.4356 30.2411L61.1526 30.9903C61.1285 31.0053 61.1087 31.0262 61.095 31.0512C61.0814 31.0761 61.0745 31.1041 61.075 31.1325V32.6309C61.075 32.6944 61.1051 32.7425 61.1526 32.7742L62.4356 33.5224C62.4591 33.538 62.4867 33.5463 62.5149 33.5463C62.5431 33.5463 62.5707 33.538 62.5942 33.5224L63.875 32.7742C63.8994 32.759 63.9195 32.7378 63.9334 32.7126C63.9472 32.6875 63.9544 32.6591 63.9543 32.6304V31.1336C63.9544 31.1051 63.9472 31.077 63.9333 31.0521C63.9194 31.0272 63.8993 31.0063 63.875 30.9914L62.5937 30.2416C62.5704 30.226 62.543 30.2171 62.5149 30.217ZM34.5734 39.177C34.3399 39.177 34.1075 39.2339 33.9095 39.3455L27.5937 43.0243C27.3912 43.1431 27.2233 43.3128 27.1069 43.5166C26.9904 43.7204 26.9293 43.9511 26.9298 44.1859V51.5266C26.9298 52.0045 27.1824 52.4508 27.5937 52.6903L29.2562 53.6452C30.0633 54.0433 30.3483 54.0422 30.7119 54.0422C31.8987 54.0422 32.5795 53.3099 32.5795 52.0516V44.8082C32.5788 44.7578 32.5586 44.7096 32.5231 44.6738C32.4876 44.638 32.4396 44.6174 32.3892 44.6163H31.5831C31.5325 44.6171 31.4842 44.6376 31.4485 44.6734C31.4128 44.7093 31.3924 44.7576 31.3917 44.8082V52.0532C31.3917 52.6105 30.8071 53.1688 29.8736 52.6914L28.1482 51.6879C28.0848 51.6562 28.0525 51.5752 28.0525 51.5118V44.1695C28.0525 44.106 28.0848 44.0273 28.1482 43.995L34.4619 40.3326C34.5094 40.3009 34.5893 40.3009 34.6527 40.3326L40.968 43.995C41.0309 44.0273 41.0621 44.0902 41.0621 44.17V51.5113C41.0621 51.5906 41.0309 51.6556 40.968 51.6874L34.6527 55.3662C34.6051 55.3979 34.5253 55.3979 34.4619 55.3662L32.848 54.3933C32.8005 54.3616 32.737 54.3457 32.6894 54.3774C32.2465 54.6323 32.1688 54.6656 31.7412 54.8089C31.646 54.8406 31.488 54.9035 31.804 55.0785L33.9095 56.3374C34.1151 56.4484 34.3361 56.5119 34.5734 56.5119C34.8108 56.5119 35.0476 56.449 35.2373 56.3697L41.5532 52.6909C41.7558 52.5717 41.9236 52.4016 42.0401 52.1974C42.1566 51.9932 42.2176 51.7622 42.2171 51.5271V44.1859C42.2171 43.7079 41.9644 43.2633 41.5532 43.0243L35.2373 39.3455C35.034 39.2336 34.8055 39.1757 34.5734 39.177ZM44.4336 42.5294C44.1095 42.5307 43.7991 42.6606 43.5707 42.8906C43.3424 43.1206 43.2147 43.4319 43.2157 43.756C43.2148 44.0801 43.3426 44.3912 43.5709 44.6211C43.7993 44.851 44.1096 44.9808 44.4336 44.9821C45.0991 44.9821 45.652 44.4249 45.652 43.756C45.6503 43.4327 45.5216 43.123 45.2937 42.8936C45.0658 42.6643 44.7569 42.5331 44.4336 42.5294ZM44.4172 42.7367C44.552 42.735 44.6858 42.7601 44.8108 42.8106C44.9358 42.8612 45.0495 42.936 45.1454 43.0309C45.2412 43.1257 45.3172 43.2387 45.369 43.3632C45.4207 43.4877 45.4472 43.6212 45.4469 43.756C45.4469 44.3138 44.9876 44.7918 44.4177 44.7918C43.8643 44.7918 43.4049 44.3292 43.4049 43.756C43.4049 43.1829 43.8796 42.7367 44.4172 42.7367ZM43.9748 43.0708V44.4719H44.2449V43.9163H44.4822C44.5774 43.9163 44.6086 43.948 44.6244 44.0273C44.6244 44.0437 44.6715 44.3937 44.6715 44.4571H44.9558C44.9241 44.3937 44.9083 44.2023 44.8924 44.0907C44.8771 43.9157 44.8618 43.7883 44.6715 43.7724C44.7666 43.7402 44.9247 43.6926 44.9247 43.4377C44.9247 43.0713 44.6075 43.0713 44.45 43.0713L43.9748 43.0708ZM44.2126 43.2939H44.4336C44.5134 43.2939 44.6392 43.2939 44.6392 43.4848C44.6392 43.5482 44.6086 43.6767 44.4336 43.6767H44.2121L44.2126 43.2939ZM36.2994 44.3931C34.4947 44.3931 33.4184 45.1577 33.4184 46.4477C33.4184 47.8335 34.4947 48.2141 36.2201 48.3897C38.2927 48.597 38.4513 48.8999 38.4513 49.3139C38.4513 50.0303 37.8804 50.3333 36.5509 50.3333C34.8731 50.3333 34.5094 49.9188 34.3826 49.0749C34.3826 48.9792 34.3049 48.9163 34.2098 48.9163H33.3867C33.3364 48.9169 33.2884 48.9373 33.253 48.973C33.2176 49.0087 33.1976 49.0569 33.1975 49.1072C33.1975 50.19 33.7668 51.4642 36.5372 51.4642C38.5306 51.4642 39.6862 50.6669 39.6862 49.2658C39.6862 47.8959 38.7674 47.53 36.8216 47.2752C34.8583 47.0203 34.6533 46.877 34.6533 46.4155C34.6533 46.0332 34.8272 45.5241 36.283 45.5241C37.5807 45.5241 38.0707 45.8112 38.261 46.6867C38.2705 46.7262 38.2928 46.7615 38.3243 46.7872C38.3558 46.8129 38.3948 46.8275 38.4355 46.8289H39.2738C39.3219 46.8289 39.3695 46.7977 39.4018 46.766C39.4312 46.7237 39.4473 46.6737 39.4483 46.6222C39.3219 45.0937 38.3255 44.3931 36.2994 44.3931Z" fill="#5FA04E"/>
<path d="M47.0706 13.4882C47.0033 13.4874 46.937 13.5042 46.8781 13.5369C46.8168 13.5725 46.7658 13.6233 46.7299 13.6845C46.694 13.7456 46.6744 13.8149 46.673 13.8858V24.2376C46.673 24.3327 46.6238 24.429 46.5292 24.4924C46.4855 24.5159 46.4366 24.5282 46.387 24.5282C46.3374 24.5282 46.2885 24.5159 46.2448 24.4924L44.5681 23.5217C44.4451 23.4512 44.3057 23.4141 44.164 23.4141C44.0222 23.4141 43.8828 23.4512 43.7598 23.5217L37.0507 27.4237C36.9266 27.4937 36.8231 27.5952 36.7508 27.718C36.6785 27.8408 36.6399 27.9806 36.639 28.1231V35.9106C36.639 36.1972 36.7975 36.4684 37.0507 36.6117L43.7609 40.5137C43.8839 40.5841 44.0231 40.6211 44.1648 40.6211C44.3065 40.6211 44.4457 40.5841 44.5686 40.5137L51.2782 36.6117C51.5314 36.4684 51.69 36.1972 51.69 35.9106V16.4982C51.69 16.1958 51.5314 15.924 51.2782 15.7812L47.2751 13.5369C47.2118 13.505 47.1414 13.4884 47.0706 13.4882ZM7.48504 23.204C7.35871 23.204 7.23238 23.2499 7.12192 23.3133L0.411759 27.2011C0.285762 27.273 0.181195 27.3771 0.108818 27.5029C0.0364413 27.6286 -0.0011327 27.7713 -3.77715e-05 27.9164L0.0163685 38.3628C0.0163685 38.5066 0.0945716 38.6499 0.221447 38.7139C0.280161 38.7527 0.34901 38.7735 0.419415 38.7735C0.48982 38.7735 0.558669 38.7527 0.617384 38.7139L4.60629 36.4208C4.85949 36.2776 5.01645 36.0063 5.01645 35.7197V30.8307C5.01645 30.5441 5.17504 30.2729 5.42879 30.1296L7.12192 29.1425C7.24824 29.0626 7.39152 29.0309 7.53371 29.0309C7.6759 29.0309 7.81863 29.0626 7.92965 29.1425L9.62278 30.1296C9.87598 30.2729 10.0346 30.5441 10.0346 30.8307V35.7197C10.0346 36.0063 10.1921 36.2776 10.4447 36.4208L14.4019 38.7139C14.4635 38.7529 14.5349 38.7736 14.6078 38.7736C14.6807 38.7736 14.7521 38.7529 14.8137 38.7139C14.8765 38.6794 14.9289 38.6286 14.9651 38.5668C15.0013 38.5049 15.02 38.4344 15.0193 38.3628V27.9164C15.0193 27.6298 14.8607 27.3586 14.607 27.2147L7.91324 23.3133C7.80068 23.253 7.67725 23.2156 7.55012 23.2034L7.48504 23.204ZM62.5373 23.3188C62.3989 23.3188 62.2617 23.3549 62.1348 23.4271L55.4236 27.3269C55.1704 27.4701 55.0134 27.7414 55.0134 28.0285V35.816C55.0134 36.1026 55.1704 36.3738 55.4236 36.5171L62.0867 40.3381C62.2067 40.4085 62.3433 40.4456 62.4823 40.4456C62.6214 40.4456 62.758 40.4085 62.878 40.3381L66.9139 38.0779C66.9767 38.0434 67.0289 37.9925 67.065 37.9307C67.1011 37.8688 67.1198 37.7984 67.119 37.7268C67.1196 37.6554 67.1008 37.5851 67.0647 37.5235C67.0286 37.4619 66.9765 37.4112 66.9139 37.3768L60.1726 33.4743C60.1113 33.4383 60.0603 33.3871 60.0243 33.3258C59.9884 33.2644 59.9689 33.1948 59.9675 33.1237V30.6869C59.9667 30.6154 59.9854 30.5451 60.0215 30.4834C60.0577 30.4218 60.1099 30.3711 60.1726 30.3369L62.2781 29.1261C62.3397 29.0871 62.4111 29.0665 62.484 29.0665C62.5569 29.0665 62.6283 29.0871 62.6899 29.1261L64.7932 30.3363C64.8547 30.3722 64.906 30.4233 64.9422 30.4846C64.9784 30.546 64.9983 30.6156 64.9999 30.6869V32.5982C64.9999 32.742 65.0786 32.8853 65.205 32.9487C65.2666 32.9878 65.3381 33.0086 65.4111 33.0086C65.4841 33.0086 65.5556 32.9878 65.6173 32.9487L69.6046 30.6081C69.7268 30.5368 69.8279 30.4342 69.8975 30.3109C69.9671 30.1876 70.0026 30.048 70.0005 29.9065V28.0115C70.0005 27.725 69.8419 27.4554 69.6046 27.3115L62.9414 23.4265C62.8185 23.3562 62.6795 23.3189 62.5379 23.3183L62.5373 23.3188ZM44.164 29.1343C44.1995 29.1343 44.2356 29.1425 44.2679 29.1589L46.5614 30.4965C46.6249 30.5283 46.6572 30.607 46.6572 30.671V33.3463C46.6572 33.4262 46.6249 33.4907 46.5614 33.5224L44.2673 34.8601C44.2351 34.8758 44.1998 34.8839 44.164 34.8839C44.1281 34.8839 44.0928 34.8758 44.0606 34.8601L41.7664 33.5224C41.703 33.4907 41.6707 33.4103 41.6707 33.3463V30.671C41.6707 30.5912 41.7036 30.5283 41.7664 30.496L44.0606 29.1589C44.0928 29.1427 44.1279 29.1343 44.164 29.1343Z" fill="#333333"/>
<path d="M26.2402 23.4571C26.1173 23.3867 25.9782 23.3496 25.8366 23.3496C25.695 23.3496 25.5558 23.3867 25.433 23.4571L18.7699 27.3273C18.6476 27.3984 18.5465 27.5008 18.4769 27.6239C18.4073 27.747 18.3718 27.8864 18.3739 28.0279V35.7831C18.3739 36.0702 18.5325 36.3409 18.7699 36.4842L25.433 40.3539C25.5558 40.4243 25.695 40.4613 25.8366 40.4613C25.9782 40.4613 26.1173 40.4243 26.2402 40.3539L32.9028 36.4842C33.156 36.3409 33.2987 36.0702 33.2987 35.7831V28.0279C33.2987 27.7413 33.1401 27.47 32.9028 27.3273L26.2402 23.4571Z" fill="url(#paint0_linear_18_62)"/>
<path d="M32.9186 27.3273L26.2243 23.4571C26.1586 23.4238 26.0897 23.3972 26.0187 23.3778L18.5167 36.2928C18.5801 36.3727 18.6588 36.4361 18.7381 36.4842L25.433 40.3539C25.6228 40.4655 25.8442 40.4972 26.0499 40.4332L33.0931 27.4706C33.0467 27.4101 32.987 27.361 32.9186 27.3273Z" fill="url(#paint1_linear_18_62)"/>
<path d="M32.9186 36.4837C33.1089 36.3722 33.2511 36.1813 33.3145 35.974L25.9864 23.3615C25.7972 23.3297 25.591 23.3456 25.4171 23.4572L18.7698 27.311L25.9394 40.465C26.034 40.4491 26.145 40.4174 26.2401 40.3693L32.9186 36.4837Z" fill="url(#paint2_linear_18_62)"/>
</g>
<defs>
<linearGradient id="paint0_linear_18_62" x1="28.5499" y1="26.339" x2="22.4648" y2="38.6753" gradientUnits="userSpaceOnUse">
<stop stop-color="#3F873F"/>
<stop offset="0.33" stop-color="#3F8B3D"/>
<stop offset="0.637" stop-color="#3E9638"/>
<stop offset="0.934" stop-color="#3DA92E"/>
<stop offset="1" stop-color="#3DAE2B"/>
</linearGradient>
<linearGradient id="paint1_linear_18_62" x1="24.8241" y1="32.8111" x2="41.8019" y2="20.3441" gradientUnits="userSpaceOnUse">
<stop offset="0.138" stop-color="#3F873F"/>
<stop offset="0.402" stop-color="#52A044"/>
<stop offset="0.713" stop-color="#64B749"/>
<stop offset="0.908" stop-color="#6ABF4B"/>
</linearGradient>
<linearGradient id="paint2_linear_18_62" x1="18.1302" y1="31.9029" x2="33.5479" y2="31.9029" gradientUnits="userSpaceOnUse">
<stop offset="0.092" stop-color="#6ABF4B"/>
<stop offset="0.287" stop-color="#64B749"/>
<stop offset="0.598" stop-color="#52A044"/>
<stop offset="0.862" stop-color="#3F873F"/>
</linearGradient>
<clipPath id="clip0_18_62">
<rect width="70" height="70" fill="white"/>
</clipPath>
</defs>
</svg>
