<svg width="70" height="70" viewBox="0 0 70 70" fill="none" xmlns="http://www.w3.org/2000/svg">
<path d="M0 35C0 45.1681 15.6702 53.4117 35 53.4117C54.3298 53.4117 70 45.1681 70 35C70 24.832 54.3293 16.5884 35 16.5884C15.6702 16.5884 0 24.832 0 35Z" fill="url(#paint0_radial_18_84)"/>
<path d="M35 52.0445C53.5746 52.0445 68.6328 44.4128 68.6328 35C68.6328 25.5861 53.5746 17.9556 35 17.9556C16.4254 17.9556 1.36719 25.5861 1.36719 35C1.36719 44.4128 16.4254 52.0445 35 52.0445Z" fill="#777BB3"/>
<path d="M19.0159 37.1132C20.5434 37.1132 21.683 36.8315 22.4044 36.2765C23.1186 35.7263 23.6113 34.7742 23.87 33.4464C24.1106 32.205 24.0187 31.3387 23.5966 30.8706C23.1656 30.3926 22.2332 30.1504 20.8255 30.1504H18.3843L17.0319 37.1132H19.0159ZM11.0321 45.6898C10.9761 45.6897 10.9208 45.6773 10.8702 45.6533C10.8196 45.6293 10.7749 45.5944 10.7393 45.5512C10.7038 45.5079 10.6783 45.4573 10.6646 45.4029C10.6509 45.3486 10.6494 45.292 10.6602 45.237L14.2461 26.7865C14.263 26.7003 14.3094 26.6226 14.3772 26.5666C14.445 26.5107 14.5301 26.48 14.618 26.4797H22.3475C24.7767 26.4797 26.5847 27.1393 27.7216 28.4403C28.8635 29.7473 29.2168 31.5761 28.77 33.8735C28.5879 34.8092 28.2751 35.6782 27.8403 36.4569C27.3877 37.2579 26.8103 37.9816 26.1297 38.6007C25.2924 39.3838 24.3447 39.9525 23.3149 40.2867C22.3021 40.617 21.0005 40.7843 19.4485 40.7843H16.3182L15.4246 45.3825C15.4077 45.469 15.3613 45.547 15.2933 45.6031C15.2252 45.6591 15.1398 45.6898 15.0516 45.6898H11.0321Z" fill="black"/>
<path d="M18.6976 30.5298H20.8255C22.5247 30.5298 23.1148 30.9028 23.3155 31.1254C23.6474 31.494 23.7109 32.2722 23.4965 33.3741C23.2564 34.6084 22.8112 35.484 22.173 35.9751C21.5201 36.4782 20.4569 36.733 19.0159 36.733H17.4923L18.6982 30.5304L18.6976 30.5298ZM22.3475 26.1002H14.6185C14.4423 26.1002 14.2715 26.1614 14.1354 26.2735C13.9993 26.3855 13.9064 26.5413 13.8726 26.7143L10.2867 45.1653C10.2655 45.2752 10.2689 45.3884 10.2965 45.4969C10.3242 45.6054 10.3754 45.7064 10.4466 45.7927C10.5179 45.8791 10.6073 45.9487 10.7085 45.9965C10.8097 46.0443 10.9202 46.0691 11.0321 46.0693H15.0516C15.2279 46.0691 15.3986 46.0077 15.5345 45.8956C15.6705 45.7835 15.7633 45.6276 15.797 45.4546L16.631 41.1638H19.448C21.0405 41.1638 22.3814 40.9899 23.433 40.6476C24.5142 40.2965 25.509 39.7009 26.3894 38.8773C27.0984 38.2316 27.7 37.4771 28.1717 36.6423C28.6262 35.8291 28.9532 34.9213 29.1424 33.9456C29.6127 31.5268 29.2305 29.5903 28.0071 28.1903C26.7952 26.8029 24.891 26.0996 22.3475 26.0996V26.1002ZM16.5709 37.4921H19.0159C20.6363 37.4921 21.8433 37.1875 22.6362 36.5761C23.4298 35.9658 23.9641 34.9464 24.243 33.5185C24.5082 32.147 24.3873 31.1795 23.8793 30.6157C23.3701 30.0524 22.353 29.7702 20.8255 29.7702H18.0715L16.5709 37.4921ZM22.348 26.8581C24.6734 26.8581 26.3692 27.469 27.4356 28.6891C28.502 29.9097 28.8225 31.6132 28.3981 33.8002C28.222 34.7014 27.9262 35.525 27.5094 36.2709C27.0916 37.018 26.5469 37.7005 25.8737 38.3201C25.0709 39.0709 24.1801 39.6063 23.1984 39.9252C22.2173 40.2445 20.9672 40.4037 19.4485 40.4037H16.0054L15.0522 45.3091H11.0326L14.6191 26.8581H22.348Z" fill="white"/>
<path d="M37.9854 40.7843C37.9293 40.7844 37.874 40.772 37.8233 40.7481C37.7726 40.7243 37.7278 40.6895 37.6921 40.6462C37.6565 40.603 37.6308 40.5524 37.617 40.4981C37.6033 40.4437 37.6017 40.387 37.6124 40.332L39.1984 32.1683C39.3498 31.3917 39.3127 30.835 39.0945 30.5987C38.9605 30.4549 38.5591 30.2137 37.3718 30.2137H34.4974L32.5035 40.4775C32.4864 40.5639 32.4398 40.6417 32.3717 40.6976C32.3035 40.7534 32.2181 40.7839 32.13 40.7837H28.1433C28.0873 40.7838 28.032 40.7714 27.9813 40.7476C27.9306 40.7238 27.8858 40.689 27.8501 40.6459C27.8144 40.6027 27.7887 40.5522 27.7748 40.4979C27.7609 40.4437 27.7592 40.387 27.7698 40.332L31.3562 21.881C31.3732 21.7946 31.4196 21.7167 31.4877 21.6608C31.5557 21.6048 31.6411 21.5742 31.7291 21.5742H35.7159C35.7719 21.5742 35.8272 21.5865 35.8779 21.6104C35.9285 21.6342 35.9733 21.6689 36.009 21.7121C36.0447 21.7553 36.0704 21.8058 36.0843 21.86C36.0982 21.9143 36.0999 21.9709 36.0894 22.0259L35.2242 26.4797H38.3157C40.6711 26.4797 42.268 26.8942 43.1982 27.749C44.1459 28.6202 44.4423 30.013 44.0776 31.8905L42.4091 40.4775C42.392 40.5638 42.3454 40.6416 42.2774 40.6974C42.2094 40.7533 42.1241 40.7838 42.0361 40.7837H37.9854V40.7843Z" fill="black"/>
<path d="M35.7164 21.1941H31.7291C31.5528 21.1941 31.382 21.2555 31.2459 21.3676C31.1098 21.4797 31.017 21.6357 30.9832 21.8088L27.3974 40.2592C27.3761 40.3692 27.3794 40.4825 27.407 40.591C27.4346 40.6995 27.4858 40.8006 27.557 40.887C27.6283 40.9735 27.7177 41.0431 27.8189 41.0909C27.9202 41.1388 28.0308 41.1636 28.1427 41.1638H32.13C32.3063 41.1637 32.4772 41.1024 32.6133 40.9903C32.7493 40.8781 32.8422 40.7222 32.8759 40.5491L34.8102 30.5932H37.3707C38.5563 30.5932 38.8057 30.8464 38.815 30.8579C38.8872 30.9345 38.9818 31.2927 38.8254 32.096L37.2395 40.2592C37.2182 40.3692 37.2215 40.4826 37.2491 40.5911C37.2768 40.6997 37.328 40.8008 37.3993 40.8873C37.4706 40.9737 37.5601 41.0433 37.6614 41.0911C37.7627 41.1389 37.8734 41.1637 37.9854 41.1638H42.0366C42.2129 41.1636 42.3836 41.1022 42.5196 40.9901C42.6555 40.878 42.7483 40.7221 42.782 40.5491L44.4506 31.9632C44.8416 29.9474 44.5069 28.4358 43.4552 27.4695C42.4512 26.5475 40.7701 26.0996 38.3157 26.0996H35.6852L36.4624 22.0992C36.4837 21.9891 36.4805 21.8757 36.4529 21.7671C36.4253 21.6585 36.374 21.5573 36.3027 21.4708C36.2315 21.3843 36.1419 21.3146 36.0406 21.2668C35.9392 21.219 35.8285 21.1941 35.7164 21.1941ZM35.7164 21.9542L34.7632 26.8586H38.3157C40.5508 26.8586 42.093 27.2491 42.9406 28.0289C43.7899 28.8088 44.0437 30.0715 43.7052 31.8188L42.0361 40.4042H37.9854L39.5719 32.2404C39.7524 31.3118 39.6856 30.6785 39.3723 30.3406C39.0589 30.0032 38.3917 29.8342 37.3718 29.8342H34.1841L32.13 40.4036H28.1422L31.7286 21.9526H35.7164V21.9542Z" fill="white"/>
<path d="M50.3869 37.1132C51.9143 37.1132 53.0545 36.8315 53.7764 36.2765C54.4895 35.7263 54.9828 34.7742 55.2415 33.4464C55.4821 32.205 55.3908 31.3387 54.9681 30.8706C54.5371 30.3926 53.6047 30.1504 52.197 30.1504H49.7563L48.4028 37.1132H50.3869ZM42.4047 45.6898C42.3486 45.6899 42.2932 45.6775 42.2424 45.6536C42.1917 45.6297 42.1468 45.5949 42.1112 45.5516C42.0755 45.5083 42.0499 45.4576 42.0361 45.4032C42.0224 45.3488 42.0209 45.2921 42.0317 45.237L45.6176 26.7865C45.6346 26.7001 45.681 26.6222 45.7491 26.5663C45.8171 26.5103 45.9025 26.4797 45.9906 26.4797H53.7195C56.1488 26.4797 57.9567 27.1393 59.0931 28.4403C60.2356 29.7473 60.5883 31.5761 60.1415 33.8735C59.9707 34.7785 59.6571 35.6505 59.2123 36.4569C58.7596 37.2578 58.1822 37.9815 57.5017 38.6007C56.665 39.3838 55.7162 39.9525 54.687 40.2867C53.6741 40.617 52.3726 40.7843 50.82 40.7843H47.6902L46.7972 45.3825C46.7803 45.4691 46.7338 45.5471 46.6656 45.6032C46.5975 45.6593 46.5119 45.6899 46.4237 45.6898H42.4047Z" fill="black"/>
<path d="M50.0691 30.5298H52.197C53.8962 30.5298 54.4862 30.9028 54.6864 31.1254C55.02 31.494 55.0823 32.2722 54.8685 33.3741C54.6279 34.6084 54.1827 35.484 53.5445 35.9751C52.891 36.4782 51.8279 36.733 50.3874 36.733H48.8638L50.0691 30.5298ZM53.719 26.1002H45.99C45.8138 26.1003 45.6432 26.1616 45.5072 26.2736C45.3713 26.3857 45.2784 26.5414 45.2446 26.7143L41.6582 45.1653C41.637 45.2753 41.6404 45.3885 41.6681 45.497C41.6957 45.6055 41.747 45.7066 41.8183 45.7929C41.8896 45.8793 41.979 45.9489 42.0803 45.9966C42.1816 46.0444 42.2922 46.0692 42.4041 46.0693H46.4237C46.5999 46.0691 46.7706 46.0077 46.9066 45.8956C47.0426 45.7835 47.1353 45.6276 47.1691 45.4546L48.003 41.1638H50.8195C52.4114 41.1638 53.7529 40.9899 54.804 40.6476C55.8857 40.2965 56.8805 39.7009 57.7615 38.8768C58.4702 38.2312 59.0716 37.4769 59.5432 36.6423C59.9982 35.8291 60.3241 34.9213 60.5139 33.9456C60.9842 31.5268 60.6025 29.5903 59.3786 28.1903C58.1667 26.8029 56.263 26.0996 53.7184 26.0996L53.719 26.1002ZM47.9423 37.4921H50.3869C52.0078 37.4921 53.2142 37.1875 54.0083 36.5761C54.8012 35.9658 55.3361 34.9464 55.6139 33.5185C55.8802 32.147 55.7594 31.1795 55.2502 30.6157C54.7416 30.0524 53.7239 29.7702 52.197 29.7702H49.4435L47.9423 37.4921ZM53.719 26.8581C56.0437 26.8581 57.7407 27.469 58.8066 28.6891C59.873 29.9097 60.194 31.6132 59.7685 33.8002C59.5935 34.7014 59.2971 35.525 58.8804 36.2709C58.4631 37.018 57.9179 37.7005 57.2441 38.3201C56.4419 39.0709 55.5505 39.6063 54.5688 39.9252C53.5883 40.2445 52.3387 40.4037 50.8195 40.4037H47.3769L46.4226 45.3091H42.403L45.9895 26.8581H53.719Z" fill="white"/>
<defs>
<radialGradient id="paint0_radial_18_84" cx="0" cy="0" r="1" gradientUnits="userSpaceOnUse" gradientTransform="translate(21.0142 23.0612) scale(45.9601 45.9601)">
<stop stop-color="#AEB2D5"/>
<stop offset="0.3" stop-color="#AEB2D5"/>
<stop offset="0.75" stop-color="#484C89"/>
<stop offset="1" stop-color="#484C89"/>
</radialGradient>
</defs>
</svg>
