<svg width="70" height="70" viewBox="0 0 70 70" fill="none" xmlns="http://www.w3.org/2000/svg">
<g clip-path="url(#clip0_18_35)">
<path d="M35 42.0125C38.4458 42.0125 41.2391 38.8729 41.2391 35C41.2391 31.1271 38.4458 27.9875 35 27.9875C31.5542 27.9875 28.7609 31.1271 28.7609 35C28.7609 38.8729 31.5542 42.0125 35 42.0125Z" fill="#61DAFB"/>
<path d="M35 49.367C53.4895 49.367 68.4782 42.9347 68.4782 35C68.4782 27.0653 53.4895 20.6329 35 20.6329C16.5105 20.6329 1.52173 27.0653 1.52173 35C1.52173 42.9347 16.5105 49.367 35 49.367Z" stroke="#61DAFB"/>
<path d="M23.9299 42.1835C33.1747 60.1807 45.6253 71.5541 51.7391 67.5868C57.853 63.6194 55.3148 45.8136 46.0701 27.8164C36.8253 9.81923 24.3747 -1.55421 18.2609 2.41314C12.147 6.3805 14.6852 24.1863 23.9299 42.1835Z" stroke="#61DAFB"/>
<path d="M23.9299 27.8164C14.6852 45.8136 12.1471 63.6194 18.2609 67.5868C24.3747 71.5541 36.8253 60.1807 46.0701 42.1835C55.3148 24.1863 57.853 6.3805 51.7391 2.41315C45.6253 -1.5542 33.1747 9.81924 23.9299 27.8164Z" stroke="#61DAFB"/>
</g>
<defs>
<clipPath id="clip0_18_35">
<rect width="70" height="70" fill="white"/>
</clipPath>
</defs>
</svg>
