<svg width="70" height="70" viewBox="0 0 70 70" fill="none" xmlns="http://www.w3.org/2000/svg">
<g clip-path="url(#clip0_18_70)">
<path d="M12.3977 25.7031H66.9047V65.9914H12.3977V25.7031Z" fill="white"/>
<path d="M0.820312 34.9508V69.1305H69.1797V0.771118H0.820312V34.9508ZM55.907 32.2164C57.5443 32.5964 59.0324 33.4527 60.1836 34.6774C60.8173 35.3371 61.3683 36.0717 61.8242 36.8649C61.8242 36.9524 58.8711 38.9485 57.0719 40.0641C57.0062 40.1078 56.7438 39.8235 56.4539 39.3914C56.1255 38.8247 55.6588 38.3504 55.0974 38.0128C54.5361 37.6752 53.8983 37.4854 53.2438 37.461C51.1711 37.3188 49.8367 38.4071 49.8477 40.1953C49.8305 40.6406 49.9325 41.0823 50.143 41.475C50.5969 42.4211 51.4445 42.9844 54.1023 44.1328C58.9969 46.2383 61.0914 47.6274 62.393 49.6016C63.8477 51.7891 64.1703 55.3219 63.1859 57.936C62.0922 60.7797 59.4125 62.7102 55.6227 63.35C53.8917 63.5483 52.1428 63.5299 50.4164 63.2953C47.7704 62.8592 45.3331 61.5888 43.4602 59.6696C42.8312 58.975 41.6063 57.1649 41.6828 57.0336C41.8825 56.8854 42.0926 56.752 42.3117 56.6344L44.8438 55.2344L46.807 54.0969L47.2172 54.7039C47.9094 55.6941 48.7903 56.5378 49.8094 57.1867C51.9969 58.3352 54.9828 58.1766 56.4594 56.8477C56.9551 56.3607 57.2644 55.7153 57.3334 55.0238C57.4023 54.3323 57.2266 53.6386 56.8367 53.0633C56.2898 52.3031 55.1961 51.6633 52.1391 50.3289C48.6117 48.8086 47.0914 47.868 45.7023 46.3696C44.8352 45.3807 44.1949 44.2141 43.8266 42.9516C43.5518 41.5092 43.5112 40.0319 43.7062 38.5766C44.4336 35.1696 46.9875 32.7906 50.7172 32.0852C52.4444 31.8715 54.1941 31.9194 55.907 32.2274V32.2164ZM39.8617 35.0821V37.8821H30.9859V63.1641H24.6914V37.8766H15.7937V35.1422C15.766 34.1993 15.7879 33.2555 15.8594 32.3149C15.9031 32.2656 21.3281 32.2656 27.8906 32.2656H39.8289L39.8617 35.0821Z" fill="#007ACC"/>
</g>
<defs>
<clipPath id="clip0_18_70">
<rect width="70" height="70" fill="white"/>
</clipPath>
</defs>
</svg>
